<svg xmlns="http://www.w3.org/2000/svg" xmlns:xlink="http://www.w3.org/1999/xlink" id="Icons" x="0px" y="0px" width="841.891px" height="595.281px" viewBox="0 0 841.891 595.281" xml:space="preserve"><g>	<ellipse cx="383.74" cy="148.82" rx="204.628" ry="111.615"></ellipse>	<path d="M383.74,446.461c-89.292,0-163.702-26.044-204.628-66.97v66.97c0,63.248,89.292,111.615,204.628,111.615  c16.742,0,33.484-1.86,50.227-3.721C406.063,526.451,389.321,487.385,383.74,446.461L383.74,446.461z"></path>	<path d="M179.112,230.671v66.97c0,63.248,89.292,111.615,204.628,111.615c0,0,0,0,1.86,0  c3.721-44.646,26.043-85.571,55.808-115.336c-18.603,1.86-37.205,3.721-57.668,3.721  C294.448,297.64,220.038,271.596,179.112,230.671z"></path></g><path d="M569.765,279.038c-81.852,0-148.82,66.969-148.82,148.82c0,81.851,66.969,148.82,148.82,148.82 c81.851,0,148.82-66.97,148.82-148.82C718.586,346.007,651.616,279.038,569.765,279.038z"></path><path fill="#FFFFFF" d="M530.004,357.004c0,3.451,1.254,6.463,3.771,8.971l25.828,25.834c2.384,2.387,4.666,4.199,9.404,4.199 c4.736,0,7.377-2.171,9.51-4.305l25.723-25.729c2.515-2.508,3.771-5.52,3.771-8.971c0-7.722-6.603-13.001-13.001-13.001 c-3.353,0-6.412,1.21-8.971,3.771l-4.031,4.031v-33.805c0-7.177-5.827-13.001-13.001-13.001c-7.176,0-13.001,5.824-13.001,13.001 v33.805l-4.031-4.031c-2.561-2.562-5.614-3.771-8.97-3.771C536.609,344.003,530.004,349.288,530.004,357.004z M608.01,474.013 c7.173,0,13.001-5.827,13.001-13.001c0-7.173-5.828-13.001-13.001-13.001c-7.174,0-13.001,5.828-13.001,13.001 C595.01,468.186,600.837,474.013,608.01,474.013z M656.358,409.009l-22.346-66.936c-2.742-10.563-10.563-11.071-13.001-11.071 H595.01c14.334,0,26.002,11.662,26.002,26.002c0,5.336-1.587,10.278-4.564,14.528l12.486,37.477H509.077l12.49-37.477 c-2.978-4.25-4.564-9.186-4.564-14.528c0-14.34,11.661-26.002,26.002-26.002h-26.002c-2.438,0-10.259,0.508-13.001,11.071 l-22.342,66.936c-2.543,6.805-3.66,10.97-3.66,13.001v78.007c0,7.109,5.688,13.001,13.001,13.001h156.013 c7.313,0,13.001-5.892,13.001-13.001V422.01C660.014,419.978,658.897,415.813,656.358,409.009z M634.012,487.014H504.002V435.01 h130.011V487.014z"></path></svg>